# xmcd
#
# Track frame offsets: 
#        150
#        21320
#        35607
#        46943
#        66036
#        89841
#        105883
#        128326
#        153469
#        172987
#        190736
#        207588
#
# Disc length: 2978 seconds
#
# Revision: 0
# Processed by: cddbd v1.5.2PL0 Copyright (c) Steve Scherf et al.
# Submitted via: ExactAudioCopy v1.3
#
DISCID=9a0ba00c
DTITLE=Mick Kolassa And The Taylor Made Blues Band - 149 Delta Avenue
DYEAR=2018
DGENRE=Electric Blues
TTITLE0=The Viper
TTITLE1=I Can't Slow Down
TTITLE2=U.S. 12 To Highway 49
TTITLE3=Alternative Man
TTITLE4=Cotton Road
TTITLE5=American Intervention
TTITLE6=Pulling Me Down
TTITLE7=Whiskey In The Morning
TTITLE8=I Don't Need No Doctor
TTITLE9=Miss Boss
TTITLE10=35 Miles To Empty
TTITLE11=Alternative Man Alternative
EXTD=
EXTT0=
EXTT1=
EXTT2=
EXTT3=
EXTT4=
EXTT5=
EXTT6=
EXTT7=
EXTT8=
EXTT9=
EXTT10=
EXTT11=
PLAYORDER=
